<svg width="124" height="29" viewBox="0 0 124 29" fill="none" xmlns="http://www.w3.org/2000/svg">
<path d="M23.5577 13.4756H12.2324V11.7601H23.5577C24.2792 11.7601 24.799 11.9806 24.799 12.6111C24.799 13.2551 24.2792 13.4756 23.5577 13.4756ZM25.9107 14.4001C27.4413 14.2976 28.2923 13.2861 28.2923 12.1276C28.2923 10.5126 26.676 9.45654 24.1346 9.45654H8.76758V19.7228H12.2324V15.5587H23.9765C24.7704 15.5587 25.2616 15.8217 25.2616 16.4832C25.2616 17.1446 24.7704 17.4212 23.9765 17.4212H13.4451L15.7124 19.7228H24.7133C27.2548 19.7228 28.8711 18.6378 28.8711 16.9222C28.8711 15.3672 27.527 14.5026 25.9107 14.4001ZM59.7878 19.7228H63.3116V12.1701H71.254V9.45654H59.7878V19.7228ZM51.8587 9.45654V12.1701H58.5751L55.9041 9.45654H51.8587ZM73.3614 15.7792H92.1932V13.4021H73.3614V15.7792ZM73.3614 19.7228H92.1932V17.3477H73.3614V19.7228ZM73.3614 11.8336H92.1932V9.45654H73.3614V11.8336ZM31.2222 15.7792H50.0539V13.4021H31.2222V15.7792ZM31.2222 19.7228H50.0539V17.3477H31.2222V19.7228ZM31.2222 11.8336H50.0539V9.45654H31.2222V11.8336ZM111.838 16.4735C111.952 16.4426 112.07 16.4058 112.194 16.3652C113.711 15.8585 114.72 14.7657 114.72 13.0791C114.72 10.6286 112.582 9.45654 109.883 9.45654H94.8185V19.7228H98.3118V12.0231H109.593C110.503 12.0231 111.153 12.2862 111.153 13.1662C111.153 14.0462 110.503 14.3112 109.593 14.3112H101.878L99.5245 16.7017H107.851L110.825 19.7228H115.036L111.838 16.4735Z" fill="black"/>
<rect x="0.750758" y="0.750758" width="122.498" height="27.4985" stroke="black" stroke-width="1.50152"/>
</svg>
